<svg id="Layer_1" data-name="Layer 1" xmlns="http://www.w3.org/2000/svg" viewBox="0 0 215.35 80"><defs><style>.cls-1{fill:#231f20;}</style></defs><title>Artboard 1</title><path class="cls-1" d="M62.4,18A22.45,22.45,0,1,0,84.85,40.5,22.48,22.48,0,0,0,62.4,18Zm0,36.83A14.37,14.37,0,1,1,76.77,40.5,14.39,14.39,0,0,1,62.4,54.87Z"/><path class="cls-1" d="M111.62,18A22.48,22.48,0,0,0,89.17,40.5V79.69h8.08v-22A22.45,22.45,0,1,0,111.62,18Zm0,36.83A14.37,14.37,0,1,1,126,40.5,14.39,14.39,0,0,1,111.62,54.87Z"/><path class="cls-1" d="M160.84,18A22.45,22.45,0,1,0,183.29,40.5,22.48,22.48,0,0,0,160.84,18Zm0,36.83A14.37,14.37,0,1,1,175.21,40.5,14.39,14.39,0,0,1,160.84,54.87Z"/><path class="cls-1" d="M23.89,15.46a8.92,8.92,0,0,1-2.63-6.35V.31H13.18v8.8A17.08,17.08,0,0,0,30.24,26.18h7V18.1h-7A8.93,8.93,0,0,1,23.89,15.46Z"/><path class="cls-1" d="M21.25,50.48V44.26h0V35.11A17.08,17.08,0,0,0,4.19,18h-3v8.08h3a9,9,0,0,1,9,9v8.57h0v6.8A12.46,12.46,0,0,0,25.62,62.93H37.27V54.85H25.62A4.37,4.37,0,0,1,21.25,50.48Z"/><path class="cls-1" d="M212.45,25S211,23,210.91,22.8a12.87,12.87,0,0,0-12.45-4.54A13.48,13.48,0,0,0,187.6,31.88a12.43,12.43,0,0,0,5.49,9.88,18.48,18.48,0,0,0,7.36,2.43,8.64,8.64,0,0,1,3.69,1,5.44,5.44,0,0,1,2.16,2.9c1.48,4.89-3.83,8.17-8,6.43-1.8-.74-2.79-2.43-3.54-4.13l-7.1,3.15a13.61,13.61,0,0,0,7.9,8.57c5.15,2,12.13.28,15.61-4a14.82,14.82,0,0,0,3-7.95A13.34,13.34,0,0,0,212,41.8a11.91,11.91,0,0,0-.77-1,11.79,11.79,0,0,0-6.31-3.92c-1.44-.33-2.94-.37-4.4-.65a6.58,6.58,0,0,1-3.89-2,4.76,4.76,0,0,1-1-2.34A4.91,4.91,0,0,1,197.85,27a5.94,5.94,0,0,1,8.23,2.2Z"/></svg>